<?xml version="1.0" standalone="no"?>
<!DOCTYPE svg PUBLIC "-//W3C//DTD SVG 20010904//EN"
 "http://www.w3.org/TR/2001/REC-SVG-20010904/DTD/svg10.dtd">
<svg version="1.0" xmlns="http://www.w3.org/2000/svg"
 width="500.000000pt" height="500.000000pt" viewBox="0 0 500.000000 500.000000"
 preserveAspectRatio="xMidYMid meet">
<metadata>
Created by potrace 1.11, written by Peter Selinger 2001-2013
</metadata>
<g transform="translate(0.000000,500.000000) scale(0.100000,-0.100000)"
fill="#000000" stroke="none">
<path d="M2667 3264 c-1 -1 -40 -4 -87 -8 -150 -11 -252 -33 -407 -87 -88 -31
-276 -118 -323 -150 -14 -9 -52 -31 -85 -48 -70 -37 -80 -44 -155 -92 -68 -44
-95 -59 -123 -66 -27 -7 -191 -30 -272 -38 -77 -8 -131 -14 -175 -20 -94 -11
-139 -16 -179 -20 -42 -4 -91 -11 -156 -21 -76 -11 -280 -67 -345 -94 -148
-61 -264 -150 -296 -226 -22 -53 -17 -56 34 -20 65 47 104 67 197 103 158 61
324 96 565 119 30 3 417 7 860 8 1176 6 1912 25 2280 61 19 2 73 6 120 9 47 4
101 9 120 11 19 2 62 6 95 10 262 25 605 103 605 137 0 9 -1 9 -55 13 -22 1
-65 5 -95 9 -30 4 -74 9 -98 12 -75 8 -284 55 -382 86 -52 16 -160 57 -238 90
-262 109 -386 147 -593 183 -116 21 -137 23 -259 31 -86 5 -548 12 -553 8z
m583 -88 c14 -3 47 -8 74 -11 223 -26 427 -108 560 -225 41 -36 90 -110 74
-111 -22 -2 -179 -6 -478 -13 -157 -4 -361 -9 -455 -11 -93 -3 -262 -7 -375
-10 -113 -2 -322 -7 -465 -11 -143 -3 -307 -7 -365 -9 -58 -1 -109 -1 -113 2
-20 12 251 198 390 268 196 97 275 117 513 131 63 3 117 8 119 10 5 5 494 -4
521 -10z"/>
<path d="M1823 2847 c-46 -41 -32 -51 72 -50 103 1 133 18 106 62 -6 10 -31
15 -77 16 -62 1 -70 -1 -101 -28z"/>
<path d="M4919 2766 c-4 -4 -165 -39 -239 -52 -14 -3 -92 -18 -175 -34 -82
-15 -170 -31 -195 -35 -25 -3 -52 -8 -61 -11 -9 -2 -34 -7 -55 -10 -22 -2 -91
-13 -154 -23 -63 -11 -137 -22 -165 -26 -27 -3 -61 -8 -75 -10 -14 -2 -47 -7
-75 -10 -27 -3 -84 -9 -125 -15 -123 -15 -267 -29 -470 -45 -325 -24 -1036
-25 -1255 0 -16 2 -77 6 -135 10 -58 3 -121 8 -140 10 -38 5 -102 11 -225 20
-44 4 -100 8 -125 11 -62 6 -331 5 -410 -1 -226 -17 -457 -75 -628 -158 -84
-41 -123 -69 -56 -41 109 46 310 94 456 109 29 4 69 8 88 11 42 6 365 6 400 0
14 -2 52 -7 85 -11 51 -5 119 -16 245 -39 14 -3 68 -10 120 -16 52 -6 109 -13
125 -15 17 -2 64 -7 105 -10 41 -4 89 -9 105 -11 187 -24 1105 -24 1360 0 22
3 76 7 120 11 44 3 94 7 110 9 17 2 61 7 99 11 38 3 72 8 75 9 3 2 33 7 66 11
33 3 119 18 190 31 72 14 144 28 160 31 50 9 253 62 380 100 212 62 540 190
494 192 -9 1 -18 -1 -20 -3z"/>
<path d="M4848 2676 c-58 -31 -278 -116 -376 -146 -131 -40 -376 -97 -454
-106 -32 -4 -56 -9 -54 -12 9 -8 114 -3 256 13 73 8 89 11 210 36 64 13 207
62 265 91 61 30 160 98 174 119 13 23 13 23 -21 5z"/>
</g>
</svg>
